<?xml version="1.0" encoding="UTF-8"?>
<!DOCTYPE svg PUBLIC "-//W3C//DTD SVG 1.1//EN" "http://www.w3.org/Graphics/SVG/1.1/DTD/svg11.dtd">
<svg xmlns="http://www.w3.org/2000/svg" version="1.1" width="512px" height="512px" style="shape-rendering:geometricPrecision; text-rendering:geometricPrecision; image-rendering:optimizeQuality; fill-rule:evenodd; clip-rule:evenodd" xmlns:xlink="http://www.w3.org/1999/xlink">
<g><path style="opacity:0.87" fill="#000000" d="M 127.5,14.5 C 137.459,15.9063 147.126,18.4063 156.5,22C 157.701,22.9025 158.535,24.0692 159,25.5C 160.03,29.7727 160.697,34.106 161,38.5C 165.172,40.9186 169.172,43.5852 173,46.5C 210.959,24.7018 251.459,18.2018 294.5,27C 361.899,44.0656 404.399,86.2323 422,153.5C 428.656,186.586 426.156,218.919 414.5,250.5C 421.037,252.38 427.371,254.714 433.5,257.5C 435.297,259.131 436.464,261.131 437,263.5C 437.333,267.5 437.667,271.5 438,275.5C 445.076,279.906 451.576,285.072 457.5,291C 462.695,289.75 468.028,289.417 473.5,290C 476.333,291.5 478.5,293.667 480,296.5C 484.456,303.578 487.956,311.078 490.5,319C 490.385,321.732 489.552,324.232 488,326.5C 485.317,329.016 482.817,331.683 480.5,334.5C 482.551,342.693 483.718,351.027 484,359.5C 491.078,361.906 495.245,366.739 496.5,374C 494.471,383.421 491.637,392.587 488,401.5C 486.421,403.041 484.587,404.208 482.5,405C 478.129,405.172 473.796,405.672 469.5,406.5C 464.764,413.46 459.431,419.96 453.5,426C 458.417,433.895 457.417,440.895 450.5,447C 442.844,451.662 434.844,455.496 426.5,458.5C 424.423,458.308 422.423,457.808 420.5,457C 417.02,454.354 413.686,451.521 410.5,448.5C 402.256,450.269 393.923,451.602 385.5,452.5C 383.337,457.828 379.671,461.662 374.5,464C 371.101,464.546 367.768,464.213 364.5,463C 357.201,461.179 350.201,458.679 343.5,455.5C 339.706,450.528 338.706,445.028 340.5,439C 335.729,435.862 331.229,432.362 327,428.5C 320.71,437.152 312.377,440.818 302,439.5C 307.314,457.883 300.648,468.883 282,472.5C 275.251,471.012 268.418,470.179 261.5,470C 256.876,476.748 252.376,483.581 248,490.5C 244.438,494.114 240.105,496.114 235,496.5C 220.856,494.241 206.689,492.075 192.5,490C 187.09,488.257 183.256,484.757 181,479.5C 178.542,471.453 175.708,463.62 172.5,456C 165.057,455.223 157.723,453.889 150.5,452C 140.101,446.169 136.268,437.335 139,425.5C 140.211,422.241 142.044,419.408 144.5,417C 127.59,412.016 120.757,400.849 124,383.5C 130.165,369.834 140.665,364.167 155.5,366.5C 153.496,345.322 146.996,325.655 136,307.5C 119.943,288.414 107.61,267.08 99,243.5C 96.6866,235.58 94.6866,227.58 93,219.5C 88.8657,218.002 84.6991,216.502 80.5,215C 79.3333,213.833 78.1667,212.667 77,211.5C 76.0177,206.874 75.1843,202.208 74.5,197.5C 67.5568,193.223 60.8901,188.556 54.5,183.5C 48.8464,186.846 43.1797,187.012 37.5,184C 31.1977,176.059 26.1977,167.392 22.5,158C 24.4206,152.562 27.4206,147.729 31.5,143.5C 29.269,135.996 27.769,128.329 27,120.5C 22.9791,118.323 19.3124,115.656 16,112.5C 15.1922,110.577 14.6922,108.577 14.5,106.5C 16.0423,97.6642 18.2089,88.9976 21,80.5C 22.214,78.9512 23.714,77.7845 25.5,77C 29.7727,75.9695 34.106,75.3028 38.5,75C 42.1442,68.2127 46.6442,62.046 52,56.5C 51.5867,52.6685 50.7534,48.8351 49.5,45C 49.9363,41.566 51.2697,38.566 53.5,36C 60.1667,32 66.8333,28 73.5,24C 76.5,23.3333 79.5,23.3333 82.5,24C 85.7323,26.9027 89.2323,29.4027 93,31.5C 100.328,29.2639 107.828,28.0973 115.5,28C 117.207,24.7515 119.04,21.5849 121,18.5C 123.013,16.7518 125.18,15.4185 127.5,14.5 Z M 128.5,23.5 C 135.519,24.8376 142.519,26.3376 149.5,28C 150,28.5 150.5,29 151,29.5C 151.088,34.6561 151.921,39.6561 153.5,44.5C 157.167,46.6667 160.833,48.8333 164.5,51C 158.616,55.7256 152.616,60.2256 146.5,64.5C 117.793,52.0502 92.6263,57.0502 71,79.5C 53.7743,104.02 53.1076,129.02 69,154.5C 75.1467,161.983 82.48,167.983 91,172.5C 90.5557,184.856 90.389,197.19 90.5,209.5C 88.6183,208.907 86.7849,208.24 85,207.5C 84.0046,202.547 83.3379,197.547 83,192.5C 74.3635,187.763 66.5302,181.93 59.5,175C 54.5592,174.94 49.7259,175.773 45,177.5C 42.3721,176.206 40.3721,174.206 39,171.5C 36.3661,167.065 33.8661,162.565 31.5,158C 33.2799,155.216 35.4465,152.716 38,150.5C 39.3083,148.866 40.1416,147.032 40.5,145C 37.4501,135.749 35.9501,126.249 36,116.5C 35.6258,115.584 35.1258,114.75 34.5,114C 31.0061,112.421 27.6728,110.587 24.5,108.5C 24.3639,100.681 25.6972,93.0143 28.5,85.5C 33.5438,84.831 38.5438,83.9977 43.5,83C 48.237,74.3635 54.0703,66.5302 61,59.5C 61.1384,54.7074 60.3051,50.0408 58.5,45.5C 58.5288,43.9707 59.1955,42.804 60.5,42C 66.1667,38.5 71.8333,35 77.5,31.5C 81.2739,33.7706 84.6072,36.6039 87.5,40C 88.6667,40.1667 89.8333,40.3333 91,40.5C 100.669,37.972 110.502,36.472 120.5,36C 123.39,31.9498 126.057,27.7832 128.5,23.5 Z M 247.5,31.5 C 317.526,30.2461 369.026,60.2461 402,121.5C 421.18,163.405 422.347,205.738 405.5,248.5C 403.111,249.18 400.778,250.014 398.5,251C 395.627,254.577 393.127,258.411 391,262.5C 382.992,261.899 374.992,262.566 367,264.5C 363.511,261.68 360.011,258.847 356.5,256C 354.645,255.578 352.811,255.078 351,254.5C 341.46,258.103 332.46,262.77 324,268.5C 322.162,271.037 321.329,273.871 321.5,277C 322.104,280.886 322.604,284.719 323,288.5C 316.876,294.099 311.709,300.432 307.5,307.5C 303.952,307.619 300.285,307.785 296.5,308C 292.934,308.7 290.1,310.533 288,313.5C 285.498,322.177 282.998,330.844 280.5,339.5C 281.994,346.497 286.161,351.164 293,353.5C 294.202,362.529 295.202,371.529 296,380.5C 293.906,383.103 291.406,385.103 288.5,386.5C 277.509,384.724 266.509,383.057 255.5,381.5C 260.794,342.111 266.46,302.778 272.5,263.5C 283.17,264.738 293.837,266.072 304.5,267.5C 327.727,264.776 339.561,251.776 340,228.5C 335.114,204.97 320.614,194.47 296.5,197C 285.525,200.059 277.359,206.559 272,216.5C 268.766,228.638 266.599,240.971 265.5,253.5C 255.147,251.926 244.814,250.259 234.5,248.5C 234.167,247.5 233.833,246.5 233.5,245.5C 234.974,236.017 236.307,226.517 237.5,217C 233.438,188.96 217.438,177.626 189.5,183C 170.126,192.252 162.96,207.419 168,228.5C 173.364,241.933 183.198,249.767 197.5,252C 206.158,253.308 214.825,254.475 223.5,255.5C 217.46,294.778 211.794,334.111 206.5,373.5C 192.382,372.34 178.382,370.34 164.5,367.5C 162.328,345.484 155.828,324.817 145,305.5C 136.277,293.776 127.944,281.776 120,269.5C 90.3214,212.36 92.3214,156.36 126,101.5C 155.907,59.9577 196.407,36.6244 247.5,31.5 Z M 109.5,66.5 C 115.176,66.3339 120.843,66.5006 126.5,67C 131.177,67.6142 135.511,69.1142 139.5,71.5C 114.456,97.2496 98.6231,127.916 92,163.5C 67.4842,146.284 60.4842,123.617 71,95.5C 79.4221,79.9033 92.2554,70.2366 109.5,66.5 Z M 196.5,189.5 C 219.837,189.668 230.337,201.335 228,224.5C 227.283,232.368 225.783,240.035 223.5,247.5C 213.131,245.899 202.798,244.066 192.5,242C 176.017,233.552 171.184,220.719 178,203.5C 182.526,196.505 188.693,191.839 196.5,189.5 Z M 300.5,204.5 C 318.856,204.692 329.189,213.859 331.5,232C 328.442,252.046 316.775,260.712 296.5,258C 288.657,257.139 280.991,255.639 273.5,253.5C 275.214,244.552 276.714,235.552 278,226.5C 281.447,214.885 288.947,207.552 300.5,204.5 Z M 231.5,257.5 C 242.561,258.485 253.561,259.985 264.5,262C 258.285,301.461 252.118,340.961 246,380.5C 235.6,378.419 225.1,376.752 214.5,375.5C 220.167,336.167 225.833,296.833 231.5,257.5 Z M 404.5,257.5 C 412.357,258.952 420.023,261.118 427.5,264C 428.307,269.083 428.807,274.25 429,279.5C 437.814,285.5 445.981,292.333 453.5,300C 458.627,300.142 463.627,299.309 468.5,297.5C 474.211,303.742 478.545,310.909 481.5,319C 481.333,319.833 481.167,320.667 481,321.5C 476.552,324.111 473.385,327.778 471.5,332.5C 473.905,342.68 475.072,353.013 475,363.5C 478.746,366.29 482.579,368.957 486.5,371.5C 487.641,373.421 487.808,375.421 487,377.5C 485.409,383.943 483.242,390.11 480.5,396C 475.5,396.333 470.5,396.667 465.5,397C 459.775,406.392 452.942,414.892 445,422.5C 445.414,427.006 446.247,431.506 447.5,436C 447.415,437.107 447.081,438.107 446.5,439C 439.954,442.772 433.288,446.272 426.5,449.5C 422.418,446.925 418.751,443.758 415.5,440C 410.482,440.165 405.482,440.832 400.5,442C 394.5,442.333 388.5,442.667 382.5,443C 378.837,446.133 376.004,449.966 374,454.5C 365.608,454.386 357.441,452.552 349.5,449C 348.693,443.917 348.193,438.75 348,433.5C 339.336,428.073 331.503,421.573 324.5,414C 323.391,413.362 322.225,412.862 321,412.5C 316.053,414.501 311.053,415.167 306,414.5C 302.483,407.657 298.983,400.823 295.5,394C 298.284,390.213 301.451,386.713 305,383.5C 305.167,382.5 305.333,381.5 305.5,380.5C 303.223,370.296 302.056,359.962 302,349.5C 298.758,346.795 295.258,344.461 291.5,342.5C 290.447,341.562 289.78,340.395 289.5,339C 291.434,331.764 293.601,324.598 296,317.5C 301.417,316.691 306.917,316.191 312.5,316C 317.859,306.969 324.359,298.802 332,291.5C 331.979,286.405 331.146,281.405 329.5,276.5C 329.977,275.522 330.643,274.689 331.5,274C 337.936,270.366 344.436,266.866 351,263.5C 354.787,266.284 358.287,269.451 361.5,273C 362.5,273.167 363.5,273.333 364.5,273.5C 374.704,271.223 385.038,270.056 395.5,270C 398.865,266.107 401.865,261.94 404.5,257.5 Z M 383.5,301.5 C 416.184,301.739 436.017,317.739 443,349.5C 444.309,382.718 428.809,403.218 396.5,411C 361.568,412.286 340.735,395.786 334,361.5C 333.046,338.571 342.212,321.071 361.5,309C 368.578,305.364 375.911,302.864 383.5,301.5 Z M 144.5,374.5 C 191.935,380.538 239.268,387.372 286.5,395C 290.452,404.57 295.452,413.57 301.5,422C 306.504,424.785 311.671,424.951 317,422.5C 317.833,422.833 318.667,423.167 319.5,423.5C 315.777,428.529 310.777,431.195 304.5,431.5C 251.12,423.992 197.787,416.159 144.5,408C 132.407,403.057 128.907,394.557 134,382.5C 136.855,378.789 140.355,376.123 144.5,374.5 Z M 155.5,419.5 C 199.275,424.777 242.941,430.944 286.5,438C 295.488,442.797 297.488,449.631 292.5,458.5C 289.651,461.897 285.984,463.564 281.5,463.5C 239.813,457.473 198.146,451.307 156.5,445C 146.315,440.154 144.149,432.987 150,423.5C 151.812,422.023 153.645,420.69 155.5,419.5 Z M 183.5,457.5 C 206.471,461.044 229.471,464.544 252.5,468C 249.209,472.748 246.042,477.581 243,482.5C 241.457,484.378 239.624,485.878 237.5,487C 223.781,486.089 210.115,484.422 196.5,482C 193.966,481.484 191.8,480.317 190,478.5C 187.367,471.632 185.2,464.632 183.5,457.5 Z"/></g>
<g><path style="opacity:0.822" fill="#000000" d="M 349.5,21.5 C 355.228,22.9482 360.395,25.6149 365,29.5C 366.913,35.0943 365.08,37.261 359.5,36C 356.167,34 352.833,32 349.5,30C 346.875,27.1185 346.875,24.2852 349.5,21.5 Z"/></g>
<g><path style="opacity:0.856" fill="#000000" d="M 459.5,26.5 C 477.947,24.7829 486.781,33.1162 486,51.5C 483.291,62.0359 476.457,67.7026 465.5,68.5C 447.19,64.8817 441.023,54.215 447,36.5C 450.191,31.8366 454.358,28.5032 459.5,26.5 Z M 462.5,34.5 C 475.059,35.2144 479.559,41.5477 476,53.5C 470.249,60.3218 463.749,61.1551 456.5,56C 450.756,46.8164 452.756,39.6497 462.5,34.5 Z"/></g>
<g><path style="opacity:0.852" fill="#000000" d="M 380.5,42.5 C 384.202,44.0236 387.536,46.1903 390.5,49C 426.954,83.5717 446.62,125.905 449.5,176C 447.231,176.758 445.064,176.591 443,175.5C 437.172,125.175 415.506,83.1745 378,49.5C 376.916,46.3411 377.75,44.0078 380.5,42.5 Z"/></g>
<g><path style="opacity:0.865" fill="#000000" d="M 378.5,293.5 C 416.371,291.226 440.537,308.226 451,344.5C 454.953,379.442 440.787,403.609 408.5,417C 376.192,425.015 351.025,415.182 333,387.5C 319.056,356.89 324.222,330.057 348.5,307C 357.704,300.561 367.704,296.061 378.5,293.5 Z M 383.5,301.5 C 375.911,302.864 368.578,305.364 361.5,309C 342.212,321.071 333.046,338.571 334,361.5C 340.735,395.786 361.568,412.286 396.5,411C 428.809,403.218 444.309,382.718 443,349.5C 436.017,317.739 416.184,301.739 383.5,301.5 Z"/></g>
<g><path style="opacity:0.864" fill="#000000" d="M 57.5,365.5 C 59.0295,366.067 60.5295,366.733 62,367.5C 65.8245,383.324 75.6578,393.158 91.5,397C 92.8333,399.667 92.8333,402.333 91.5,405C 75.6578,408.842 65.8245,418.676 62,434.5C 59.3333,437.167 56.6667,437.167 54,434.5C 50.1755,418.676 40.3422,408.842 24.5,405C 21.8333,402.333 21.8333,399.667 24.5,397C 40.3333,393.167 50.1667,383.333 54,367.5C 55.3024,366.915 56.469,366.249 57.5,365.5 Z M 57.5,382.5 C 61.9773,390.476 68.3106,396.643 76.5,401C 68.3333,405.167 62.1667,411.333 58,419.5C 53.1177,411.617 46.6177,405.451 38.5,401C 46.6621,396.671 52.9954,390.504 57.5,382.5 Z"/></g>
<g><path style="opacity:0.857" fill="#000000" d="M 401.5,466.5 C 407.388,466.736 411.721,469.402 414.5,474.5C 412.113,479.321 408.78,479.821 404.5,476C 402.833,475.333 401.167,475.333 399.5,476C 389.31,487.618 376.643,491.618 361.5,488C 353.836,485.89 346.336,483.39 339,480.5C 337.686,476.819 338.853,474.486 342.5,473.5C 350.138,475.768 357.804,477.935 365.5,480C 377.943,482.112 387.943,478.112 395.5,468C 397.708,467.809 399.708,467.309 401.5,466.5 Z"/></g>
<g><path style="opacity:0.824" fill="#000000" d="M 440.5,470.5 C 444.976,470.822 446.476,473.156 445,477.5C 441.423,480.765 437.256,482.265 432.5,482C 430.604,480.192 430.104,478.025 431,475.5C 434.174,473.729 437.34,472.063 440.5,470.5 Z"/></g>
</svg>
